<?xml version="1.0" encoding="utf-8"?>
<!-- Generator: Adobe Illustrator 24.1.1, SVG Export Plug-In . SVG Version: 6.00 Build 0)  -->
<svg version="1.1" id="Capa_1" xmlns="http://www.w3.org/2000/svg" xmlns:xlink="http://www.w3.org/1999/xlink" x="0px" y="0px"
	 viewBox="0 0 152.37 209.13" style="enable-background:new 0 0 152.37 209.13;" xml:space="preserve">
<style type="text/css">
	.st0{fill:#010101;}
	.st1{fill:#FDFDFD;}
	.st2{fill:#F7F7F7;}
</style>
<g>
	<path d="M89.13,209.11c-13.31,0-26.63,0.01-39.94-0.01c-7.11-0.01-9.07-1.79-8.91-8.71c0.1-4.25,0.26-7.57-5.01-9.56
		c-4.78-1.81-6.9-10.57-5.25-16.44c1.31-4.67,5.32-7.24,11.71-7.37c10.82-0.21,21.57,0.25,32.34,1.74
		c14.47,2.01,28.47-0.79,41.97-6.12c6.93-2.74,14.1-3.97,21.49-3.1c8.36,0.99,13.66,5.5,14.66,11.96c1.15,7.43-3.2,16.93-9.73,19.73
		c-3.28,1.41-4.07,3.27-3.71,6.37c0.15,1.31,0.06,2.66,0.02,3.99c-0.19,5.37-2.26,7.46-7.7,7.48
		C117.09,209.15,103.11,209.11,89.13,209.11z"/>
	<path d="M35.11,98.99c-1.74,0.11-2.57,0.08-3.37,0.24c-5.23,1-9.64,6.18-9.27,10.82c0.34,4.39,5.29,8.68,10.51,9.07
		c3.9,0.29,7.59-0.68,11.22-1.94c2.27-0.78,3.76-0.67,5.04,1.94c4.13,8.39,7.45,17.05,9.7,26.1c1.86,7.47-1.53,13.42-9.03,16.8
		c-5.39,2.43-11.29,2.69-16.95,3.88c-3.81,0.8-5.38-2.23-6.22-5.65c-4.78-19.36-9.68-38.68-14.48-58.03
		C8.34,86.41,4.49,70.59,0.61,54.78c-1.75-7.12,0.14-10.08,7.15-11.24c16.28-2.71,21.37,2.36,18.54,18.69
		c-0.68,3.91-1.68,7.81-3.02,11.54c-1.95,5.41-1.11,10.12,2.52,14.42C28.67,91.6,31.61,94.95,35.11,98.99z"/>
	<path class="st0" d="M110.05,93.17c4.88-0.21,8.14,2.53,7.98,6.73c-0.15,3.89-3.16,6.69-7.45,6.05
		c-22.9-3.39-44.63,1.96-66.21,8.57c-3.19,0.98-6.38,1.93-9.73,2.03c-5.01,0.15-9.39-3.04-9.55-6.88c-0.16-3.79,3.27-7.35,8.08-7.9
		c22.97-2.62,45.96-5.13,68.94-7.69C104.76,93.79,107.4,93.47,110.05,93.17z"/>
	<path class="st0" d="M28.33,16.03c-0.79,8.68-1.21,16.95-9.79,21.53c-3.75,2.01-7.45,2.78-11.32,0.57c-4.02-2.3-3.42-6.03-2.9-9.71
		C5.3,21.35,6.27,14.27,7.27,7.2c0.87-6.16,6.8-9.15,12.23-5.84C25.06,4.76,28.39,9.73,28.33,16.03z"/>
	<path class="st1" d="M90.14,192.94c14.16,0,28.31,0.11,42.47-0.08c3.14-0.04,4.19,0.83,3.78,3.88c-0.22,1.64-0.09,3.33-0.03,4.99
		c0.12,3.55-1.56,5.2-5.1,5.2c-27.81-0.02-55.62-0.03-83.43,0.01c-3.53,0-5.24-1.63-5.36-5.07c-0.02-0.67,0.01-1.33,0.01-2
		c-0.04-6.93-0.04-6.93,6.71-6.93C62.83,192.94,76.48,192.94,90.14,192.94z"/>
	<path class="st2" d="M50.25,179.67c-0.34,3.71-2.37,6.03-6,6.03c-3.65,0-5.95-2.37-5.89-6.03c0.06-3.37,2.12-5.59,5.67-5.71
		C47.85,173.83,49.71,176.09,50.25,179.67z"/>
</g>
</svg>
