<?xml version="1.0" encoding="utf-8"?>
<!-- Generator: Adobe Illustrator 24.1.1, SVG Export Plug-In . SVG Version: 6.00 Build 0)  -->
<svg version="1.1" id="Capa_1" xmlns="http://www.w3.org/2000/svg" xmlns:xlink="http://www.w3.org/1999/xlink" x="0px" y="0px"
	 viewBox="0 0 366.67 279.29" style="enable-background:new 0 0 366.67 279.29;" xml:space="preserve">
<style type="text/css">
	.st0{fill:#F6B105;}
	.st1{fill:#9E090B;}
	.st2{fill:#CECED1;}
	.st3{fill:#FEFDFD;}
	.st4{fill:#FDFDFC;}
	.st5{fill:#FDFCFC;}
	.st6{fill:#FDFCFB;}
	.st7{fill:#FDFBFA;}
	.st8{fill:#FDFBFB;}
	.st9{fill:#FAF6F5;}
	.st10{fill:#FCFAF9;}
	.st11{fill:#FBF9F8;}
	.st12{fill:#F5E9E6;}
	.st13{fill:#F9F2EF;}
	.st14{fill:#F3E9E3;}
	.st15{fill:#AB312E;}
	.st16{fill:#9E0C0E;}
	.st17{fill:#9D0C0E;}
	.st18{fill:#9E0D0F;}
	.st19{fill:#9E0F0F;}
	.st20{fill:#A0171B;}
</style>
<g>
	<path class="st0" d="M14.66,163.59c-4.66-3.8-9.33-7.59-14.66-11.93c4.59-0.79,8.54-1.46,12.49-2.14c0.65-0.21,1.29-0.42,1.93-0.63
		c4.47-2.71,9.7-2.19,14.51-3.43c5.06-1.06,10.2-1.71,15.27-2.7c4.68-0.46,9.32-1.26,13.97-1.95c1.74-0.34,3.61-0.19,5.61-1.55
		c-4.78-7-10.59-13.16-15.83-19.74c-1.13-1.94-2.69-3.52-4.23-5.12c-2.53-3.42-5.24-6.7-8-9.94c-1.92-2.98-4.6-5.34-6.71-8.16
		c-0.53-0.6-1.05-1.21-1.5-1.86c-2.54-3.65-2.26-4.33,2.22-5.63c19.61,0.25,39.21,1.35,58.82,0.94c1.89-0.52,4.49,1.38,5.64-1.66
		c-0.52-5.1-1.22-10.17-2-15.22c-1.05-8.74-2.49-17.42-3.83-26.12c-0.21-0.79-0.34-1.59-0.4-2.4c-0.04-2.65-0.86-5.22-0.98-7.85
		c-0.08-1.63-1.13-3.73,1.38-4.67c5.98,2.48,10.46,7.26,15.97,10.47c0.76,0.51,1.54,1,2.3,1.52c3.76,3.24,8.21,5.53,12.06,8.64
		c2.86,2.17,5.99,3.94,8.87,6.08c2.22,1.89,4.71,3.39,7.14,4.98c3.97,2.92,8.01,5.74,12.04,8.57c1.29,0.9,2.58,2.96,4.63,1.1
		c2.16-4.37,4.22-8.77,5.86-13.36c4.32-10.15,8.76-20.24,12.94-30.44c1.41-2.74,2.44-5.65,3.76-8.42c0.85-1.76,1.46-4.18,4.39-3.42
		c3.47,3.23,5.63,7.46,8.52,11.13c2.2,3.92,5.08,7.38,7.67,11.05c1.08,1.45,2.05,2.97,3.12,4.42c4.76,7.45,4.75,7.45,11.52,1.97
		c1.01-0.82,2.11-1.53,3.06-2.42c3.51-3.47,7.74-6.12,10.99-9.87c1.89-1.86,4.32-3.08,6.09-5.09c2.67-2.99,6.26-4.93,8.93-7.92
		c2.46-2.65,5.28-4.81,8.55-6.37c2.58-1.74,5.08-3.58,6.99-6.09c3.13-2.54,6.27-5.08,10.29-8.34c-0.83,5.54-1.5,9.99-2.16,14.44
		c1.93,3.2,0.08,6.35-0.17,9.5c-0.14,1.78-0.49,3.55-0.68,5.33c-0.98,5.12-1.59,10.31-2.74,15.4c-0.47,4.83-1.63,9.56-2.18,14.37
		c-0.47,3.31-1.05,6.61-1.68,9.89c-0.52,2.17-0.62,4.37-0.68,6.65c2.46-0.03,3.95-1.45,5.72-2.17c2.98-1.35,5.85-2.89,8.77-4.36
		c4.93-2.8,10.53-4.25,15.22-7.55c5.11-2.09,10.07-4.48,14.95-7.06c3.33-1.51,6.52-3.3,9.83-4.83c1.33-0.61,2.95-1.65,4.15-0.35
		c1.22,1.33,0,2.81-0.82,4.02c-1.49,2.19-3.18,4.25-4.76,6.38c-2.5,3.34-5.17,6.55-7.44,10.06c-4.72,6.32-9.25,12.79-13.96,19.11
		c-1.63,2.83,0.87,2.69,2.25,2.77c3.95,0.23,7.79,1.32,11.77,1.24c4.78,0.73,9.58,1.19,14.37,1.82c5.07,0.55,10.18,0.8,15.19,1.82
		c4.84,0.36,9.63,1.29,14.49,1.39c4.95,1.24,10.38,0.32,14.97,3.23c2.7,0.46,5.41,0.91,8.11,1.38c0.06,0.01,0.12,0.27,0.09,0.39
		c-0.03,0.15-0.16,0.28-0.25,0.42c-3.01,1.16-6.02,2.32-9.03,3.48c-3.76,3.73-9.16,3.95-13.56,6.32
		c-9.81,3.83-19.81,7.15-29.55,11.15c-5.13,1.47-10,3.65-15.03,5.39c-3,1.62-6.86,1.53-9.07,4.62c2.45,4.52,5.69,8.51,8.38,12.86
		c0.41,0.58,0.81,1.16,1.22,1.73c1.34,1.88,2.61,3.81,3.89,5.73c4.3,6.5,4.09,7.1-3.17,9.39c-0.69,0.23-1.37,0.49-2.06,0.72
		c-4.78,1.54-9.54,3.13-14.29,4.75c-0.61,0.22-1.24,0.37-1.86,0.56c-7.02,2.16-7.02,2.16-2.72,7.92c1.42,2.27,2.99,4.43,4.71,6.49
		c1.99,2.97,4.29,5.71,6.37,8.62c2.36,3.83,5.33,7.22,7.94,10.87c1.33,1.87,2.75,3.67,4.15,5.49c2.22,2.83,4.44,5.66,6.47,8.64
		c0.64,0.94,1.36,2.01,0.55,3.14c-0.84,1.16-2.12,0.68-3.16,0.35c-2.81-0.88-5.48-2.16-8.33-2.92c-4.91-1.56-9.7-3.49-14.64-4.98
		c-3.72-1.32-7.3-3.03-11.08-4.2c-6.24-2.58-12.68-4.6-19.09-6.71c-0.62-0.24,0.16,0.1-0.46-0.15c-10.03-4.15-10.03-4.15-9.77,6.87
		c0.09,4.36,0.08,8.72,0.02,13.07c-0.79,5.3,0.98,10.63-0.11,15.94c-2.04,1.49-3.79,0.14-5.44-0.73c-4.34-2.27-8.59-4.72-12.8-7.24
		c-5.01-2.66-9.86-5.67-15.33-7.41c-1.1-0.71-2.05-1.61-3.11-2.37c-7.09-5.06-7.08-5.06-9.85,3.22c-2.25,4.85-3.39,10.1-5.44,15.02
		c-2.22,4.61-2.79,9.86-5.52,14.28c-0.36,0.35-0.78,0.54-1.28,0.6c-2.38-0.62-3.67-2.85-5.77-3.89
		c-5.44-4.78-10.84-9.61-16.41-14.25c-4.15-3.45-4.1-3.52-7.41,0.83c-0.6,0.79-1.19,1.58-1.87,2.3c-1.27,1.26-2.22,2.77-3.19,4.26
		c-2.68,3.63-5.57,7.1-8.04,10.89c-2.65,2.08-3.35,6.37-7.57,6.67c-2.35-1.93-3.82-4.57-5.61-6.96c-3.19-4.64-6.53-9.18-9.86-13.71
		c-1-1.17-2-0.9-2.89,0.1c-3.26,3.68-7.56,6.19-10.85,9.83c-1.31,1.26-2.62,2.53-4.14,3.56c-4.3,3.14-7.34,7.69-11.85,10.59
		c-1.91,1.51-3.46,3.55-5.98,4.18c-3.17,2.38-6.29,4.82-8.7,8.03c-1.43,0.97-2.85,1.93-4.55,3.08c-0.85-3.96,0.58-7.4,0.4-10.88
		c-2.27-5.02-1.34-10.13-0.46-15.23c0.4-4.27-0.1-8.58,0.53-12.84c0.97-5.16,0.79-5.45-4.34-6.52c-2.24-0.46-4.49-0.91-6.78-1.13
		c-4.88-1.23-9.73-2.59-14.76-3.09c-5.06-0.99-10.08-2.2-15.2-2.86C24.41,224.7,19,226,14.5,223.36c0,0,0.17-0.01,0.17,0
		c-0.02-0.54-0.05-1.09-0.07-1.63c0.64-2.16,2.12-3.64,3.86-5c7.03-5.49,13.93-11.14,20.95-16.65c2.09-1.64,4.09-3.35,5.56-5.6
		c4.67-2.92,4.67-2.92-1.07-7.16c-3.16-2.92-6.77-5.27-10.17-7.9c-6.33-5.35-13.55-9.64-19.21-15.8
		C14.51,163.62,14.66,163.59,14.66,163.59z"/>
	<path class="st1" d="M100.17,50.69c16.94,11.92,33.14,23.12,49.08,34.67c3.1,2.25,3.94,1.45,5.16-1.42
		c5.82-13.69,11.74-27.35,17.64-41.01c0.58-1.34,0.83-2.88,2.43-4.01c6.21,8.87,12.5,17.55,18.41,26.48
		c1.97,2.98,3.07,2.63,5.41,0.54c14.95-13.36,30.02-26.59,45.06-39.85c0.47-0.41,1.02-0.73,2.47-1.76
		c-3.45,21.94-6.76,42.95-10.2,64.82c16.97-8.23,33.14-16.08,49.31-23.92c0.19,0.17,0.38,0.35,0.56,0.52
		c-8.26,11.34-16.52,22.68-25.19,34.58c23.73,2.86,46.67,5.63,69.61,8.4c0.09,0.26,0.17,0.51,0.26,0.77
		c-7.32,2.76-14.63,5.52-21.95,8.27c-13.16,4.94-26.31,9.93-39.51,14.75c-2.68,0.98-3.28,1.78-1.47,4.34
		c4.49,6.35,8.68,12.92,13.27,19.82c-7.59,3.37-15.23,5.59-22.86,7.8c-3.18,0.92-4.25,1.67-1.65,5.04
		c9.29,12.05,18.16,24.44,27.92,37.7c-11.94-4.3-22.82-8.22-33.71-12.15c-6.38-2.3-12.76-4.57-19.11-6.93
		c-2.55-0.95-3.91-1.8-3.67,2.52c0.56,9.91,0.18,19.88,0.18,30.17c-4.06-1.24-7.4-3.65-10.95-5.57
		c-6.85-3.69-13.72-7.36-20.39-11.37c-3.46-2.08-5.14-2-6.45,2.26c-2.47,8.05-5.51,15.93-8.2,23.91c-0.87,2.59-1.48,3.65-4.09,1.19
		c-5.18-4.88-10.9-9.19-16.05-14.11c-2.79-2.67-4.07-2.05-6.07,0.75c-5.09,7.1-10.47,13.99-16.1,21.44
		c-4.14-5.67-8.25-10.85-11.83-16.38c-1.95-3.01-3.14-2.72-5.51-0.55c-11.88,10.82-23.9,21.48-36.27,32.55
		c-0.98-2.66-0.37-5.07-0.23-7.38c0.51-8.58,0.93-17.18,1.85-25.73c0.44-4.05-1.37-5-4.71-5.64c-13.97-2.68-27.91-5.53-42.3-8.41
		c2.95-4.13,7.21-6.45,10.74-9.49c5.26-4.54,10.75-8.84,16.3-13.04c2.56-1.93,3-3.03,0.08-5.22c-12.98-9.74-25.77-19.71-39.78-30.48
		c18.96-3.12,36.88-6.07,55.49-9.14c-11.4-13.93-22.42-27.4-33.73-41.22c8.56,0,16.37-0.05,24.19,0.01
		c10.29,0.08,20.58,0.22,30.87,0.4c2.23,0.04,2.91-0.77,2.58-2.97C104.75,81.68,102.55,66.7,100.17,50.69z"/>
	<path class="st2" d="M516.74,429.06"/>
	<g>
		<path class="st3" d="M143.08,139.19c-0.56,3.35-0.17,5.22,0.49,7.14c0.49,1.41,0.54,2.95-1.3,3.77c-1.61,0.72-2.42-0.22-3.3-1.29
			c-1.63-1.99-3.33-3.93-5.78-5.43c1.08,2.32,2.07,4.68,3.26,6.94c0.81,1.53,0.56,2.21-1.05,3.01c-1.74,0.87-2.26,0.2-2.9-1.21
			c-1.85-4.06-3.78-8.08-5.69-12.1c-0.72-1.51-1.82-3.21,0.8-3.84c1.94-0.47,3.64-3.59,6-0.69c1.45,1.78,2.99,3.48,4.67,5.42
			c1.13-1.91-0.09-3.36-0.45-4.71c-1.06-3.92,0.87-5.68,4.16-6.88c1.45-0.53,2.37-0.61,3.1,1.1c1.88,4.38,3.8,8.76,6.03,12.97
			c1.14,2.15-0.14,2.43-1.48,3.21c-1.67,0.97-2.73,0.67-3.51-1.04C145.32,143.85,144.47,142.11,143.08,139.19z"/>
		<path class="st4" d="M112.95,163.3c-5.27,6.21-7.81-0.33-11.23-2.34c-1.81,1.73-0.24,2.98,0.36,4.03
			c1.29,2.28,1.38,3.57-1.39,4.91c-3.19,1.54-3.16-0.99-3.92-2.48c-1.86-3.66-3.52-7.42-5.4-11.06c-0.93-1.8-0.96-2.94,1.2-3.76
			c2.76-1.06,5.45-2.32,8.14-3.56c2.24-1.03,4.31-0.65,5.86,1.07c1.4,1.55,2.82,3.44,1.36,5.7c-1.07,1.66-0.31,2.59,0.9,3.63
			C110.29,160.7,111.67,162.1,112.95,163.3z"/>
		<path class="st5" d="M214.33,104.26c1.35,2.77,2.24,4.84,3.35,6.8c1.07,1.9,1.19,3.19-1.18,4.23c-2.35,1.03-2.34-0.82-2.91-1.98
			c-1.73-3.54-3.46-7.07-5.08-10.66c-0.59-1.3-2.62-2.73-0.51-4.14c1.71-1.14,3.61-2.31,5.89-0.52c2.04,1.6,4.38,2.81,7.37,4.68
			c-1.26-2.55-2.11-4.39-3.07-6.18c-0.82-1.51-1.1-2.49,0.98-3.42c1.91-0.86,2.57-0.33,3.32,1.31c1.77,3.9,3.75,7.71,5.49,11.62
			c0.44,1,1.87,2.22,0.53,3.33c-1.35,1.11-2.88,2.18-4.87,0.82C220.83,108.25,217.93,106.52,214.33,104.26z"/>
		<path class="st6" d="M158.32,141.89c-4.52-0.03-9.24-5.46-9.25-10.66c-0.01-4.8,4.54-9.14,9.4-8.96
			c4.63,0.17,9.27,5.52,9.24,10.65C167.68,137.8,163.36,141.92,158.32,141.89z"/>
		<path class="st4" d="M119.17,140.85c4.95,0.11,9.47,5.49,9.24,10.99c-0.19,4.7-4.4,8.42-9.36,8.29c-5.18-0.14-9.4-5.15-9.16-10.87
			C110.08,144.6,114.34,140.74,119.17,140.85z"/>
		<path class="st5" d="M191.31,111.53c-0.06-4.84,3.81-8.82,8.67-8.93c5.02-0.11,9.59,4.91,9.61,10.57c0.02,4.76-3.9,8.81-8.71,8.99
			C195.99,122.35,191.38,117.24,191.31,111.53z"/>
		<path class="st7" d="M111.28,186.55c2.3,1.06,4.14,0.21,6.05-0.21c2.66-0.58,4.99,0.19,6.37,2.63c1.36,2.4,1.04,4.89-0.83,6.87
			c-2.58,2.73-5.77,4.52-9.65,3.91c-1.4-0.22-3.87-0.65-3.58-2.51c0.25-1.59,2.26-2.61,4.18-2.67c0.62-0.02,1.25,0.37,1.88,0.38
			c1.41,0.04,3.09-0.4,2.96-1.88c-0.17-2.07-1.99-0.88-3.11-0.79c-1.3,0.11-2.58,0.54-3.88,0.63c-2.4,0.17-4.07-0.96-5.17-3.08
			c-1.15-2.2-0.66-4.24,0.78-5.98c2.1-2.54,4.94-3.76,8.26-3.78c1.56-0.01,3.5,0.4,3.6,1.9c0.11,1.57-1.6,2.73-3.29,2.9
			C114.31,185.02,112.55,184.19,111.28,186.55z"/>
		<path class="st6" d="M145.69,172.85c1.37-0.66,2.61-1.14,3.73-1.83c1.53-0.93,2.37-0.34,3.09,1.03c0.7,1.33,0.27,2.17-0.99,2.75
			c-0.9,0.41-1.78,0.88-2.71,1.21c-1.24,0.44-1.38,1.38-1.01,2.36c0.52,1.35,1.59,0.81,2.47,0.43c1.35-0.59,2.69-1.24,3.98-1.95
			c1.2-0.66,2.03-0.77,2.7,0.75c0.58,1.31,1.23,2.44-0.53,3.26c-3.29,1.54-6.62,3-9.87,4.62c-1.79,0.89-2.01-0.64-2.43-1.5
			c-1.99-4.13-3.76-8.37-5.81-12.46c-0.98-1.95-0.77-2.86,1.36-3.67c2.9-1.11,5.73-2.48,8.46-3.99c1.64-0.91,2.1-0.5,2.84,1.06
			c0.77,1.62,0.49,2.32-1.03,2.95c-1.51,0.63-2.94,1.46-4.45,2.1c-1.1,0.46-0.87,1.27-0.63,2.03
			C144.96,172.36,145.42,172.59,145.69,172.85z"/>
		<path class="st5" d="M104.14,188.49c-0.62,2.04-2.83,1.84-4.19,2.83c-0.99,0.73-3.43,0.56-2.35,2.75c0.94,1.89,2.25,0.2,3.37-0.13
			c1.5-0.44,2.99-2.55,4.35,0.41c1.49,3.25-1.86,2.3-2.77,3.43c-0.68,0.84-2.81,0.53-2,2.54c1.01,2.5,2.37,0.5,3.51,0.15
			c1.09-0.33,2.05-1.04,3.12-1.46c1.8-0.69,2.21,0.93,2.94,1.92c1.29,1.73-0.56,1.75-1.34,2.34c-0.26,0.2-0.56,0.34-0.86,0.49
			c-9.55,4.66-9.55,4.66-14.31-4.87c-0.81-1.62-1.48-3.31-2.41-4.86c-1.15-1.93-1.07-3.14,1.28-4.06c2.76-1.07,5.43-2.39,8.04-3.79
			C103.21,184.72,103.5,186.67,104.14,188.49z"/>
		<path class="st5" d="M199.08,160.49c-2.62,1.42-4.48,3.74-7.51,0.62c-1.11-1.14-4.98,0.1-4.51,2.92c0.6,3.66-2.1,2.87-3.86,4.27
			c-0.87-5.61-1.64-10.74-2.47-15.87c-0.4-2.5,0.1-4.13,2.78-5.34c2.62-1.19,3.45,0.25,4.79,1.73
			C191.8,152.73,195.42,156.54,199.08,160.49z"/>
		<path class="st5" d="M91.26,161.9c-0.08,3.77-1.76,5.64-4.2,6.47c-2.97,1.01-2.97,2.38-1.46,4.66c1.17,1.77,1.65,3.01-1.21,4.38
			c-3.05,1.47-3.36-0.3-4.19-2.02c-1.72-3.55-3.23-7.2-5.11-10.65c-1.46-2.68-0.8-3.98,1.98-4.88c2.77-0.9,5.17-2.78,8.29-2.88
			C89.52,156.85,90.6,159.56,91.26,161.9z"/>
		<path class="st5" d="M138.08,178.31c0.08,2.67-1.67,4.43-4.03,5.41c-2.64,1.1-3.07,2.47-1.48,4.75c1.3,1.88,1.41,3.1-1.25,4.34
			c-2.87,1.34-3.42-0.25-4.27-2.08c-1.25-2.68-2.72-5.29-3.68-8.08c-0.71-2.08-3.64-4.07-1.5-6.4c2.65-2.89,10.96-4.67,13.25-3.43
			C137.23,173.97,138.15,175.75,138.08,178.31z"/>
		<path class="st6" d="M171.48,166.3c0.53,6.72-1.96,10.13-7.29,10.63c-4.63,0.43-9.03-3.83-9.72-9.42
			c-0.66-5.33,2.17-9.1,7.32-10.01c1.27-0.22,2.32,0.13,3.35,0.59c1.75,0.78,4.31,1.69,3.32,3.93c-0.64,1.44-2.72,3.15-5.21,0.75
			c-1.95-1.88-3.47-0.19-3.43,2.02c0.04,2.53,1.13,4.91,3.01,6.61c1.44,1.3,3.72,1.21,3.78-0.96
			C166.7,166.92,169.28,167.26,171.48,166.3z"/>
		<path class="st6" d="M176.25,133.53c-4.6,0.03-8.35-3.72-9.36-9.34c-0.74-4.08,1.51-7.87,5.57-9.4c2.51-0.94,4.96-0.84,7,0.93
			c0.85,0.74,2.95,1.73,1.8,2.93c-1,1.04-2.64,3.29-4.87,1.25c-0.85-0.78-1.74-1.57-3.04-0.73c-1.48,0.95-0.88,2.27-0.79,3.55
			c0.14,1.94,1.24,3.48,2.33,4.85c1.81,2.27,4.21,2.09,4.52-0.88c0.34-3.3,2.87-3.61,4.31-3.06c1.85,0.71,1.01,3.08,0.31,4.77
			C182.72,131.53,179.72,133.51,176.25,133.53z"/>
		<path class="st5" d="M197.06,140.93c1.3-0.1,1.51,0.76,1.85,1.49c0.9,1.94,2,3.82,2.69,5.83c1.32,3.87,3.12,5.96,7.17,2.85
			c1.77-1.36,2.39-0.17,3.2,1.34c0.94,1.75,0.17,2.06-1.22,2.84c-9.46,5.32-9.44,5.37-14.05-4.22c-0.93-1.93-1.77-3.89-2.73-5.8
			C192.07,141.5,195.65,141.96,197.06,140.93z"/>
		<path class="st8" d="M181.16,168.09c-0.11,1.89-1.79,1.8-2.8,2.42c-0.91,0.56-1.97,1.23-2.75-0.51
			c-2.09-4.65-4.33-9.23-6.56-13.82c-0.7-1.43-0.1-2.34,1.15-2.66c1.18-0.3,2.65-2.28,3.43-0.85
			C176.4,157.7,178.71,162.98,181.16,168.09z"/>
		<path class="st7" d="M185.37,109.18c1.52-0.19,1.47,1.18,1.84,1.93c1.96,3.96,3.6,8.09,5.73,11.95c1.25,2.26,0.44,2.96-1.42,4.05
			c-2.24,1.3-3.05,0.39-3.92-1.52c-1.82-4.02-3.81-7.96-5.66-11.97C180.85,111.25,182.69,108.96,185.37,109.18z"/>
		<path class="st9" d="M229.52,137.9c0.1,1.1-0.41,1.68-1.19,2.1c-1.12,0.61-1.89,0.11-2.48-0.82c-1.25-1.94-2.56-3.86-3.7-5.87
			c-0.61-1.07-2.28-2.24-1.26-3.4c1-1.14,2.76-2.04,4.28-2.22c2.1-0.25,1.64,2.08,2.14,3.27
			C228.26,133.23,228.83,135.66,229.52,137.9z"/>
		<path class="st10" d="M216.29,131.55c1.97-0.13,2,0.94,2.3,1.86c0.8,2.49,1.58,4.99,2.53,7.42c0.5,1.28,0.52,2.13-0.81,2.87
			c-1.66,0.92-2.37-0.01-3.1-1.27c-1.07-1.86-2.24-3.65-3.34-5.49C212.3,134.25,213.79,131.59,216.29,131.55z"/>
		<path class="st11" d="M237.24,132.67c0.63,2.26,0.39,3.02-0.51,3.35c-0.94,0.35-1.99,0.56-2.65-0.51c-1.66-2.65-3.23-5.36-4.92-8
			c-1.11-1.73,0.24-2.13,1.32-2.26c1.37-0.17,2.82-2.89,3.99-0.59C235.93,127.57,236.64,130.86,237.24,132.67z"/>
		<path class="st12" d="M239.07,136.29c1.58,0.91,2.3,2.75,2.14,4.05c-0.21,1.66-2.44,2.31-3.87,2.27c-1.57-0.04-2.25-2.17-2.2-3.35
			C235.21,137.19,237.77,137.44,239.07,136.29z"/>
		<path class="st13" d="M229.24,146.61c-1.49-0.63-2.23-2.31-2.21-3.43c0.04-2.14,2.56-2.57,3.97-2.66
			c1.38-0.08,2.15,2.27,2.08,3.48C232.96,145.85,230.62,145.73,229.24,146.61z"/>
		<path class="st11" d="M221.54,150.26c-2.23-0.04-2.34-2.04-2.58-3.2c-0.5-2.41,2.2-2.26,3.36-2.6c1.85-0.54,2.1,1.73,2.35,2.95
			C225.18,149.87,222.51,149.27,221.54,150.26z"/>
		<path class="st14" d="M198.66,98.62c-1.39,1.4-2.68,3.28-4.84,4.11c-0.38,0.15-1.32-0.62-0.85-1.38c1.12-1.81,2.3-3.66,4.22-4.7
			C197.56,96.44,198.61,97.29,198.66,98.62z"/>
		<path class="st15" d="M100.26,153.35c1.41,0.09,2.29,0.66,2.27,1.75c-0.03,1.82-1.72,2.33-3.02,2.76
			c-1.61,0.52-1.96-1.23-2.05-2.1C97.22,153.61,99.53,154.22,100.26,153.35z"/>
		<path class="st16" d="M161.92,133.67c0.05,2.23-0.46,3.95-2.34,3.4c-3.47-1-4-4.4-4.74-7.33c-0.34-1.35,0.59-2.82,2.18-2.57
			C160.97,127.81,160.74,131.57,161.92,133.67z"/>
		<path class="st17" d="M115.85,149.19c-0.24-2.26,0.2-3.98,2.12-3.56c3.49,0.77,3.75,4.28,4.76,6.93c0.65,1.71-0.82,3.3-2.31,2.94
			C117.04,154.7,116.54,151.46,115.85,149.19z"/>
		<path class="st18" d="M203.85,114.18c0.02,1.77-0.09,3.37-1.95,3.07c-3.97-0.64-4.14-4.28-4.98-7.16c-0.36-1.23,0.35-3,2.02-2.7
			C202.8,108.08,203.02,111.6,203.85,114.18z"/>
		<path class="st19" d="M85.67,163.73c-0.58,1.16-1.53,2.19-2.86,2.16c-1.36-0.03-1.71-1.63-1.6-2.5c0.16-1.23,1.53-1.51,2.72-1.48
			C85.01,161.94,85.78,162.38,85.67,163.73z"/>
		<path class="st20" d="M132.81,178.55c-0.54,1.45-1.41,2.38-2.86,2.54c-1.33,0.15-1.69-1.12-1.83-1.91
			c-0.32-1.83,1.35-1.93,2.54-2.14C131.79,176.83,132.39,177.67,132.81,178.55z"/>
	</g>
</g>
</svg>
