<?xml version="1.0" encoding="utf-8"?>
<!-- Generator: Adobe Illustrator 24.1.1, SVG Export Plug-In . SVG Version: 6.00 Build 0)  -->
<svg version="1.1" id="Capa_1" xmlns="http://www.w3.org/2000/svg" xmlns:xlink="http://www.w3.org/1999/xlink" x="0px" y="0px"
	 viewBox="0 0 333.52 396.93" style="enable-background:new 0 0 333.52 396.93;" xml:space="preserve">
<style type="text/css">
	.st0{fill:#FEFEFE;}
</style>
<g>
	<path d="M94.55,0c8.47,4.04,10.27,7.83,7.83,16.83c-0.36,1.33,0.08,2.21,0.72,3.2c17.22,26.49,34.45,52.98,51.61,79.51
		c1,1.55,1.93,1.87,3.75,1.59c5.51-0.86,11.08-0.86,16.6,0.03c1.67,0.27,2.53-0.06,3.45-1.48c9.15-14.2,18.36-28.36,27.61-42.5
		c0.95-1.45,0.99-2.59,0.33-4.26c-2.12-5.36-0.67-10.59,3.51-13.95c4.1-3.3,10.11-3.55,14.44-0.61c4.27,2.9,6.25,8.29,4.9,13.31
		c-1.35,5.02-5.8,8.58-11.44,8.77c-1.8,0.06-2.79,0.65-3.71,2.08c-8.46,13.11-16.91,26.23-25.53,39.24
		c-1.55,2.34-0.81,2.93,1.3,4.04c7.95,4.18,14.29,9.81,15.44,19.42c0.29,2.43,1.99,1.57,3.18,1.58c11.24,0.06,22.48,0.15,33.72,0.01
		c13.5-0.17,26.89,0.34,39.52,5.77c29.94,12.85,47.13,35.45,50.91,67.85c1.5,12.85,0.49,25.82,0.56,38.74
		c0.1,18.61,0.05,37.21,0.02,55.82c-0.05,38.52-21.82,68.49-58.39,80.3c-2.11,0.68-2.76,1.59-2.64,3.8
		c0.24,4.11,0.24,8.26-0.69,12.33c-0.49,2.16-0.91,4.59-3.28,5.32c-2.59,0.8-4.26-1.24-5.95-2.82c-3.9-3.64-7.05-7.9-9.84-12.41
		c-1.28-2.08-2.65-2.97-5.23-2.96c-53.75,0.09-107.51,0.08-161.26,0.02c-2.34,0-3.75,0.67-4.98,2.68
		c-3.05,4.96-6.54,9.61-10.9,13.53c-3.93,3.54-6.72,2.76-8.13-2.28c-1.2-4.28-1.17-8.71-0.93-13.08c0.14-2.51-0.61-3.46-3.06-4.24
		c-24.84-7.9-42.31-23.91-52.23-48.07c-4.03-9.8-5.69-20.09-5.71-30.63c-0.06-29.07-0.14-58.15,0.01-87.22
		c0.21-40.13,26.61-72.71,65.2-80.78c6.1-1.28,12.28-1.59,18.48-1.62c13.44-0.05,26.88-0.06,40.32,0.02
		c2.42,0.01,3.63-0.15,4.17-3.23c1.53-8.74,7.7-14.06,15.22-17.85c2.3-1.16,2.66-1.85,1.2-4.07c-16.51-25.26-32.92-50.59-49.36-75.9
		c-0.83-1.28-1.5-2.36-3.47-2.48c-6.38-0.39-10.54-4.08-11.36-9.57c-0.9-6.04,1.73-10.45,7.78-13.09c0.32-0.14,0.57-0.44,0.85-0.67
		C90.93,0,92.74,0,94.55,0z"/>
	<path class="st0" d="M145.34,331.17c-29.2,0-58.39,0.01-87.59,0c-12.1,0-18.28-6.22-18.28-18.37c-0.01-40.05-0.01-80.1,0-120.14
		c0-11.94,6.2-18.22,18.03-18.22c58.65-0.01,117.3-0.01,175.95,0c11.65,0,17.83,6.24,17.84,17.97c0.02,40.31,0.02,80.61,0,120.92
		c-0.01,11.62-6.28,17.84-17.97,17.85C203.99,331.18,174.67,331.17,145.34,331.17z"/>
	<path class="st0" d="M304.09,284.35c-0.21,10.35-8.71,18.63-18.96,18.46c-10.52-0.17-18.75-8.7-18.58-19.25
		c0.17-10.49,8.74-18.63,19.37-18.4C296.19,265.4,304.3,273.95,304.09,284.35z"/>
	<path class="st0" d="M304.1,210.94c-0.06,10.4-8.33,18.63-18.73,18.65c-10.55,0.02-18.92-8.4-18.83-18.95
		c0.09-10.38,8.38-18.64,18.74-18.68C295.8,191.94,304.16,200.37,304.1,210.94z"/>
</g>
</svg>
